<?xml version="1.0" standalone="no"?>
<!DOCTYPE svg PUBLIC "-//W3C//DTD SVG 20010904//EN"
 "http://www.w3.org/TR/2001/REC-SVG-20010904/DTD/svg10.dtd">
<svg version="1.0" xmlns="http://www.w3.org/2000/svg"
 width="512.000000pt" height="512.000000pt" viewBox="0 0 512.000000 512.000000"
 preserveAspectRatio="xMidYMid meet">
<metadata>
Created by potrace 1.14, written by Peter Selinger 2001-2017
</metadata>
<g transform="translate(0.000000,512.000000) scale(0.100000,-0.100000)"
fill="#000000" stroke="none">
<path d="M72 4680 c-18 -11 -41 -34 -52 -52 -20 -33 -20 -51 -18 -2073 3
-2022 3 -2040 23 -2067 11 -15 35 -35 53 -45 31 -17 141 -18 2481 -18 2401 0
2448 0 2483 19 20 11 46 36 57 57 l21 37 -2 2035 c-3 2029 -3 2036 -23 2063
-11 15 -36 35 -55 45 -33 18 -119 19 -2485 19 -2427 0 -2450 0 -2483 -20z"/>
</g>
</svg>
